<svg width="25" height="18" viewBox="0 0 25 18" fill="none" xmlns="http://www.w3.org/2000/svg">
<path d="M22.9141 7.63634C23.4474 8.32573 23.4474 9.2564 22.9141 9.94468C21.2345 12.1118 17.2048 16.5739 12.5 16.5739C7.79526 16.5739 3.76551 12.1118 2.08589 9.94468C1.82644 9.61459 1.68561 9.2085 1.68561 8.79051C1.68561 8.37252 1.82644 7.96643 2.08589 7.63634C3.76551 5.46921 7.79526 1.00708 12.5 1.00708C17.2048 1.00708 21.2345 5.46921 22.9141 7.63634V7.63634Z" stroke="white" stroke-width="2" stroke-linecap="round" stroke-linejoin="round"/>
<path d="M12.5 12.1263C14.364 12.1263 15.875 10.6329 15.875 8.79059C15.875 6.9483 14.364 5.45483 12.5 5.45483C10.636 5.45483 9.125 6.9483 9.125 8.79059C9.125 10.6329 10.636 12.1263 12.5 12.1263Z" stroke="white" stroke-width="2" stroke-linecap="round" stroke-linejoin="round"/>
</svg>
