<svg width="63" height="63" viewBox="0 0 63 63" fill="none" xmlns="http://www.w3.org/2000/svg">
<path d="M46.0417 30C50.2962 30 54.3764 31.6901 57.3848 34.6985C60.3932 37.7069 62.0833 41.7871 62.0833 46.0416C62.0833 50.2962 60.3932 54.3764 57.3848 57.3848C54.3764 60.3932 50.2962 62.0833 46.0417 62.0833C41.7871 62.0833 37.7069 60.3932 34.6985 57.3848C31.6901 54.3764 30 50.2962 30 46.0416C30 41.7871 31.6901 37.7069 34.6985 34.6985C37.7069 31.6901 41.7871 30 46.0417 30ZM6.66666 32.9137L32.3625 32.9166C31.1171 34.2116 30.0583 35.6846 29.2183 37.2916L6.66666 37.2887L6.37499 37.3179C6.09506 37.3762 5.83785 37.5139 5.63416 37.7146C5.43343 37.9171 5.29566 38.1734 5.23749 38.4525L5.20833 38.7471V43.125C5.20833 46.0679 6.52083 48.1475 9.34124 49.6641C11.7504 50.9621 15.1833 51.7466 18.8671 51.8604L19.7917 51.875L20.7162 51.8604C23.2362 51.7846 25.6367 51.3937 27.6725 50.7375C28.0342 52.1725 28.565 53.5462 29.2387 54.8296C26.1762 55.8504 22.7987 56.25 19.7917 56.25C11.8525 56.25 1.31458 53.4616 0.847912 43.7958L0.833328 43.125V38.7471C0.833328 37.2 1.44791 35.7162 2.54187 34.6223C3.63583 33.5283 5.11957 32.9137 6.66666 32.9137ZM46.0417 35.8391L45.7792 35.8625C45.4878 35.9157 45.2195 36.0564 45.01 36.2659C44.8006 36.4753 44.6599 36.7436 44.6067 37.035L44.5833 37.2975V44.5833H37.2917L37.0292 44.6066C36.7378 44.6599 36.4695 44.8006 36.26 45.01C36.0506 45.2195 35.9099 45.4878 35.8567 45.7791L35.8333 46.0416L35.8567 46.3041C35.9099 46.5955 36.0506 46.8638 36.26 47.0733C36.4695 47.2827 36.7378 47.4234 37.0292 47.4766L37.2917 47.5H44.5833V54.7916L44.6067 55.0541C44.6599 55.3455 44.8006 55.6138 45.01 55.8233C45.2195 56.0327 45.4878 56.1734 45.7792 56.2266L46.0417 56.25L46.3042 56.2266C46.5955 56.1734 46.8638 56.0327 47.0733 55.8233C47.2827 55.6138 47.4234 55.3455 47.4767 55.0541L47.5 54.7916V47.5H54.7917L55.0542 47.4766C55.3455 47.4234 55.6138 47.2827 55.8233 47.0733C56.0327 46.8638 56.1734 46.5955 56.2267 46.3041L56.25 46.0416L56.2267 45.7791C56.1734 45.4878 56.0327 45.2195 55.8233 45.01C55.6138 44.8006 55.3455 44.6599 55.0542 44.6066L54.7917 44.5833H47.5V37.2975L47.4767 37.035C47.4234 36.7436 47.2827 36.4753 47.0733 36.2659C46.8638 36.0564 46.5955 35.9157 46.3042 35.8625L46.0417 35.8391ZM19.7917 0.833313C21.5153 0.833313 23.222 1.1728 24.8144 1.83239C26.4068 2.49199 27.8537 3.45877 29.0724 4.67754C30.2912 5.89631 31.258 7.34319 31.9176 8.93559C32.5772 10.528 32.9167 12.2347 32.9167 13.9583C32.9167 15.6819 32.5772 17.3886 31.9176 18.981C31.258 20.5734 30.2912 22.0203 29.0724 23.2391C27.8537 24.4579 26.4068 25.4246 24.8144 26.0842C23.222 26.7438 21.5153 27.0833 19.7917 27.0833C16.3107 27.0833 12.9723 25.7005 10.5109 23.2391C8.04947 20.7777 6.66666 17.4393 6.66666 13.9583C6.66666 10.4773 8.04947 7.13895 10.5109 4.67754C12.9723 2.21612 16.3107 0.833313 19.7917 0.833313ZM46.0417 6.66665C48.7491 6.66665 51.3456 7.74216 53.26 9.6566C55.1745 11.571 56.25 14.1676 56.25 16.875C56.25 19.5824 55.1745 22.1789 53.26 24.0934C51.3456 26.0078 48.7491 27.0833 46.0417 27.0833C43.3342 27.0833 40.7377 26.0078 38.8233 24.0934C36.9088 22.1789 35.8333 19.5824 35.8333 16.875C35.8333 14.1676 36.9088 11.571 38.8233 9.6566C40.7377 7.74216 43.3342 6.66665 46.0417 6.66665ZM19.7917 5.20831C14.9675 5.20831 11.0417 9.13415 11.0417 13.9583C11.0417 18.7825 14.9675 22.7083 19.7917 22.7083C24.6158 22.7083 28.5417 18.7825 28.5417 13.9583C28.5417 9.13415 24.6158 5.20831 19.7917 5.20831ZM46.0417 11.0416C42.8246 11.0416 40.2083 13.6579 40.2083 16.875C40.2083 20.0921 42.8246 22.7083 46.0417 22.7083C49.2587 22.7083 51.875 20.0921 51.875 16.875C51.875 13.6579 49.2587 11.0416 46.0417 11.0416Z" fill="#0C0B48"/>
</svg>
