<svg width="70" height="68" viewBox="0 0 70 68" fill="none" xmlns="http://www.w3.org/2000/svg">
<path d="M67.0036 1.67358C66.3611 1.25657 65.6427 0.970225 64.8895 0.830918C64.1362 0.691611 63.3629 0.702068 62.6138 0.861692C61.8646 1.02131 61.1542 1.32698 60.5232 1.76122C59.8921 2.19545 59.3529 2.74976 58.9361 3.39247L26.25 53.775L10.3094 39.0361C9.74704 38.5161 9.08772 38.1119 8.36912 37.8467C7.65053 37.5815 6.88673 37.4604 6.12135 37.4904C4.57558 37.5509 3.11717 38.223 2.06695 39.3589C1.01672 40.4947 0.460724 42.0012 0.521257 43.547C0.581789 45.0927 1.2539 46.5511 2.38972 47.6014L23.3197 66.9525C23.3197 66.9525 23.9206 67.4697 24.1986 67.6505C24.8412 68.0678 25.5598 68.3544 26.3132 68.4939C27.0666 68.6334 27.8401 68.623 28.5896 68.4634C29.339 68.3037 30.0496 67.998 30.6807 67.5636C31.3119 67.1292 31.8513 66.5746 32.2681 65.9316L68.7225 9.74108C69.1395 9.09855 69.4259 8.38015 69.5652 7.62693C69.7045 6.87371 69.694 6.10041 69.5344 5.35123C69.3748 4.60205 69.0691 3.89166 68.6349 3.26064C68.2006 2.62961 67.6463 2.09033 67.0036 1.67358Z" fill="#0C0B48"/>
</svg>
