<svg width="49" height="51" viewBox="0 0 49 51" fill="none" xmlns="http://www.w3.org/2000/svg">
<path opacity="0.25" d="M47.4739 25.0021C47.4739 38.2876 37.0413 49.0042 24.237 49.0042C11.4326 49.0042 1 38.2876 1 25.0021C1 11.7166 11.4326 1 24.237 1C37.0413 1 47.4739 11.7166 47.4739 25.0021Z" stroke="white" stroke-width="2"/>
<path d="M22.297 32.6618L22.2749 25.6645H19.3896V22.6656H22.2749V20.6664C22.2749 17.9683 23.8826 16.668 26.1984 16.668C27.3078 16.668 28.2612 16.7538 28.539 16.7922V19.6119L26.9328 19.6127C25.6734 19.6127 25.4295 20.2347 25.4295 21.1475V22.6656H29.0075L28.0457 25.6645H25.4295V32.6618H22.297Z" fill="white"/>
</svg>
