<svg width="49" height="51" viewBox="0 0 49 51" fill="none" xmlns="http://www.w3.org/2000/svg">
<path opacity="0.25" d="M48 25.0021C48 38.2876 37.5674 49.0042 24.763 49.0042C11.9587 49.0042 1.52606 38.2876 1.52606 25.0021C1.52606 11.7166 11.9587 1 24.763 1C37.5674 1 48 11.7166 48 25.0021Z" stroke="white" stroke-width="2"/>
<path d="M28.3907 22.1599C28.8547 22.1599 29.2309 21.7719 29.2309 21.2932C29.2309 20.8146 28.8547 20.4265 28.3907 20.4265C27.9267 20.4265 27.5505 20.8146 27.5505 21.2932C27.5505 21.7719 27.9267 22.1599 28.3907 22.1599Z" fill="white"/>
<path fill-rule="evenodd" clip-rule="evenodd" d="M21.262 25.0018C21.262 26.9936 22.8322 28.6135 24.7629 28.6135C26.6936 28.6135 28.2638 26.9936 28.2638 25.0018C28.2638 23.01 26.6936 21.3901 24.7629 21.3901C22.8322 21.3901 21.262 23.01 21.262 25.0018ZM23.0125 25.0019C23.0125 24.0061 23.7975 23.1962 24.7629 23.1962C25.7283 23.1962 26.5133 24.0061 26.5133 25.0019C26.5133 25.9978 25.7283 26.8077 24.7629 26.8077C23.7975 26.8077 23.0125 25.9978 23.0125 25.0019Z" fill="white"/>
<path fill-rule="evenodd" clip-rule="evenodd" d="M21.2621 32.2249H28.2639C30.0633 32.2249 31.7648 30.4697 31.7648 28.6134V21.3905C31.7648 19.5342 30.0633 17.7791 28.2639 17.7791H21.2621C19.4626 17.7791 17.7612 19.5342 17.7612 21.3905V28.6134C17.7612 30.4697 19.4626 32.2249 21.2621 32.2249ZM19.5116 21.3906C19.5116 20.5464 20.4437 19.5849 21.2621 19.5849H28.2639C29.0822 19.5849 30.0143 20.5464 30.0143 21.3906V28.6133C30.0143 29.4574 29.0822 30.4189 28.2639 30.4189H21.2621C20.428 30.4189 19.5116 29.4737 19.5116 28.6133V21.3906Z" fill="white"/>
</svg>
