<svg width="20" height="20" viewBox="0 0 20 20" fill="none" xmlns="http://www.w3.org/2000/svg">
<path d="M0 0.96875C0 0.794702 0.0691404 0.627782 0.192211 0.504711C0.315282 0.38164 0.482202 0.3125 0.65625 0.3125H2.625C2.77138 0.31254 2.91355 0.361523 3.0289 0.451657C3.14424 0.541792 3.22614 0.667904 3.26156 0.809937L3.79313 2.9375H19.0312C19.1276 2.93759 19.2228 2.9589 19.31 2.99991C19.3972 3.04092 19.4743 3.10064 19.5358 3.1748C19.5973 3.24897 19.6417 3.33578 19.6659 3.42905C19.6901 3.52233 19.6934 3.61979 19.6757 3.7145L17.7069 14.2145C17.6788 14.3649 17.599 14.5007 17.4813 14.5985C17.3636 14.6963 17.2155 14.7499 17.0625 14.75H5.25C5.097 14.7499 4.94887 14.6963 4.8312 14.5985C4.71352 14.5007 4.63371 14.3649 4.60556 14.2145L2.63812 3.73419L2.11313 1.625H0.65625C0.482202 1.625 0.315282 1.55586 0.192211 1.43279C0.0691404 1.30972 0 1.1428 0 0.96875ZM4.07137 4.25L5.79469 13.4375H16.5178L18.2411 4.25H4.07137ZM6.5625 14.75C5.86631 14.75 5.19863 15.0266 4.70634 15.5188C4.21406 16.0111 3.9375 16.6788 3.9375 17.375C3.9375 18.0712 4.21406 18.7389 4.70634 19.2312C5.19863 19.7234 5.86631 20 6.5625 20C7.25869 20 7.92637 19.7234 8.41866 19.2312C8.91094 18.7389 9.1875 18.0712 9.1875 17.375C9.1875 16.6788 8.91094 16.0111 8.41866 15.5188C7.92637 15.0266 7.25869 14.75 6.5625 14.75ZM15.75 14.75C15.0538 14.75 14.3861 15.0266 13.8938 15.5188C13.4016 16.0111 13.125 16.6788 13.125 17.375C13.125 18.0712 13.4016 18.7389 13.8938 19.2312C14.3861 19.7234 15.0538 20 15.75 20C16.4462 20 17.1139 19.7234 17.6062 19.2312C18.0984 18.7389 18.375 18.0712 18.375 17.375C18.375 16.6788 18.0984 16.0111 17.6062 15.5188C17.1139 15.0266 16.4462 14.75 15.75 14.75ZM6.5625 16.0625C6.9106 16.0625 7.24444 16.2008 7.49058 16.4469C7.73672 16.6931 7.875 17.0269 7.875 17.375C7.875 17.7231 7.73672 18.0569 7.49058 18.3031C7.24444 18.5492 6.9106 18.6875 6.5625 18.6875C6.2144 18.6875 5.88056 18.5492 5.63442 18.3031C5.38828 18.0569 5.25 17.7231 5.25 17.375C5.25 17.0269 5.38828 16.6931 5.63442 16.4469C5.88056 16.2008 6.2144 16.0625 6.5625 16.0625ZM15.75 16.0625C16.0981 16.0625 16.4319 16.2008 16.6781 16.4469C16.9242 16.6931 17.0625 17.0269 17.0625 17.375C17.0625 17.7231 16.9242 18.0569 16.6781 18.3031C16.4319 18.5492 16.0981 18.6875 15.75 18.6875C15.4019 18.6875 15.0681 18.5492 14.8219 18.3031C14.5758 18.0569 14.4375 17.7231 14.4375 17.375C14.4375 17.0269 14.5758 16.6931 14.8219 16.4469C15.0681 16.2008 15.4019 16.0625 15.75 16.0625Z" fill="#E750BC"/>
</svg>
