<svg width="19" height="14" viewBox="0 0 19 14" fill="none" xmlns="http://www.w3.org/2000/svg">
<path d="M17.375 0.891602H1.625C1.2769 0.891602 0.943064 1.02827 0.696922 1.27155C0.450781 1.51483 0.3125 1.84479 0.3125 2.18884V12.5667C0.3125 12.9108 0.450781 13.2408 0.696922 13.484C0.943064 13.7273 1.2769 13.864 1.625 13.864H17.375C17.7231 13.864 18.0569 13.7273 18.3031 13.484C18.5492 13.2408 18.6875 12.9108 18.6875 12.5667V2.18884C18.6875 1.84479 18.5492 1.51483 18.3031 1.27155C18.0569 1.02827 17.7231 0.891602 17.375 0.891602ZM15.9312 2.18884L9.5 6.58648L3.06875 2.18884H15.9312ZM1.625 12.5667V2.77908L9.12594 7.90966C9.23579 7.98498 9.3663 8.02535 9.5 8.02535C9.6337 8.02535 9.76421 7.98498 9.87406 7.90966L17.375 2.77908V12.5667H1.625Z" fill="white"/>
</svg>
