<svg width="22" height="21" viewBox="0 0 22 21" fill="none" xmlns="http://www.w3.org/2000/svg">
<path d="M9.67449 5.65342L6.57341 2.11546C6.21591 1.70776 5.56049 1.70957 5.14524 2.1209L2.59508 4.64594C1.83608 5.39702 1.61883 6.51232 2.05791 7.40655C4.68106 12.7746 9.06129 17.11 14.4888 19.7101C15.3927 20.1441 16.5202 19.9294 17.2792 19.1783L19.8532 16.6297C20.2702 16.2175 20.2712 15.5661 19.855 15.2127L16.2617 12.164C15.8858 11.8451 15.3019 11.8868 14.9252 12.26L13.6748 13.4976C13.6108 13.5639 13.5266 13.6077 13.435 13.6221C13.3434 13.6365 13.2496 13.6208 13.1679 13.5774C11.1242 12.4141 9.42882 10.7363 8.25458 8.71482C8.2106 8.63396 8.19468 8.54107 8.20925 8.45041C8.22382 8.35974 8.26808 8.2763 8.33524 8.21289L9.58191 6.97982C9.95958 6.60473 10.0008 6.02488 9.67449 5.65251V5.65342Z" stroke="white" stroke-width="2" stroke-linecap="round" stroke-linejoin="round"/>
</svg>
