<svg width="24" height="23" viewBox="0 0 24 23" fill="none" xmlns="http://www.w3.org/2000/svg">
<path d="M23.7188 11.5C23.72 9.61412 23.2341 7.75778 22.3053 6.09936C21.3764 4.44095 20.034 3.03294 18.3996 2.00305C16.7653 0.973168 14.8909 0.353996 12.9463 0.201703C11.0018 0.0494104 9.04869 0.368815 7.26418 1.13094C5.47967 1.89307 3.92023 3.07381 2.72731 4.56605C1.53439 6.0583 0.745741 7.81482 0.432901 9.6763C0.120061 11.5378 0.292929 13.4453 0.935824 15.2259C1.57872 17.0064 2.6713 18.6036 4.11445 19.8726C4.14299 19.9053 4.17622 19.9339 4.21312 19.9576C6.35606 21.8063 9.12788 22.8281 12.0001 22.8281C14.8724 22.8281 17.6442 21.8063 19.7871 19.9575C19.8238 19.9339 19.8569 19.9053 19.8853 19.8727C21.0932 18.8129 22.0583 17.5204 22.7185 16.0785C23.3787 14.6365 23.7194 13.0769 23.7188 11.5ZM1.21875 11.5C1.21751 9.7866 1.65329 8.09934 2.48753 6.58757C3.32176 5.07581 4.52871 3.7862 6.00151 2.83289C7.47432 1.87959 9.16755 1.292 10.9313 1.12216C12.6951 0.95232 14.4749 1.20546 16.1133 1.85917C17.7517 2.51288 19.1981 3.54699 20.3245 4.86995C21.4509 6.19292 22.2224 7.76392 22.5709 9.44389C22.9193 11.1239 22.8339 12.861 22.3222 14.5014C21.8105 16.1419 20.8883 17.635 19.6372 18.8488C18.4737 16.9652 16.6068 15.585 14.4216 14.9927C15.4372 14.4704 16.243 13.6349 16.7108 12.6189C17.1785 11.6029 17.2814 10.4649 17.003 9.38591C16.7246 8.30691 16.0809 7.34891 15.1743 6.6643C14.2678 5.9797 13.1504 5.60781 12 5.60781C10.8496 5.60781 9.73224 5.9797 8.82569 6.6643C7.91913 7.34891 7.27544 8.30691 6.99703 9.38591C6.71862 10.4649 6.82148 11.6029 7.28924 12.6189C7.757 13.6349 8.5628 14.4704 9.57844 14.9927C7.39321 15.585 5.52636 16.9652 4.36277 18.8488C3.36514 17.8835 2.57401 16.7376 2.03455 15.4767C1.4951 14.2158 1.21788 12.8645 1.21875 11.5ZM12 14.6719C11.1656 14.6719 10.35 14.4327 9.65619 13.9846C8.96242 13.5365 8.42169 12.8996 8.10238 12.1544C7.78308 11.4092 7.69953 10.5892 7.86231 9.79815C8.02509 9.00707 8.42689 8.28042 9.01689 7.71009C9.6069 7.13975 10.3586 6.75134 11.177 6.59399C11.9953 6.43663 12.8436 6.51739 13.6144 6.82606C14.3853 7.13472 15.0442 7.65743 15.5078 8.32807C15.9713 8.99871 16.2188 9.78718 16.2188 10.5938C16.2175 11.675 15.7726 12.7116 14.9817 13.4761C14.1908 14.2406 13.1185 14.6707 12 14.6719ZM5.07012 19.4769C5.7658 18.2931 6.7736 17.3086 7.9909 16.6237C9.20821 15.9388 10.5915 15.578 12 15.578C13.4085 15.578 14.7918 15.9388 16.0091 16.6237C17.2264 17.3086 18.2342 18.2931 18.9299 19.4769C16.9902 21.0559 14.5359 21.9219 12 21.9219C9.46415 21.9219 7.0098 21.0559 5.07012 19.4769Z" fill="black"/>
</svg>
